<svg width="249" height="242" viewBox="0 0 249 242" fill="none" xmlns="http://www.w3.org/2000/svg">
<g opacity="0.5">
<path d="M17.5264 113.292L153.998 34.8807Z" fill="white"/>
<path d="M17.5264 113.292L153.998 34.8807" stroke="#141414" stroke-width="33.5613" stroke-linecap="round"/>
</g>
<g opacity="0.5">
<path d="M49.9888 164.721L186.46 86.3093Z" fill="white"/>
<path d="M49.9888 164.721L186.46 86.3093" stroke="#141414" stroke-width="33.5613" stroke-linecap="round"/>
</g>
<g opacity="0.5">
<path d="M221.417 66.6051L232.053 60.4135Z" fill="white"/>
<path d="M221.417 66.6051L232.053 60.4135" stroke="#141414" stroke-width="33.5613" stroke-linecap="round"/>
</g>
<g opacity="0.5">
<path d="M98.1348 207.031L201.78 146.492Z" fill="white"/>
<path d="M98.1348 207.031L201.78 146.492" stroke="#141414" stroke-width="33.5613" stroke-linecap="round"/>
</g>
<path d="M227.37 151.653C229.031 151.816 230.248 153.296 230.086 154.957C229.924 156.618 228.443 157.835 226.782 157.673C225.121 157.511 223.904 156.03 224.066 154.369C224.229 152.708 225.709 151.491 227.37 151.653Z" stroke="#00C83C" stroke-width="1.56239"/>
<path d="M51.4004 214.513C54.1319 214.78 56.133 217.214 55.8662 219.946C55.5994 222.677 53.1651 224.678 50.4336 224.412C47.7022 224.145 45.701 221.71 45.9678 218.979C46.2346 216.248 48.6689 214.246 51.4004 214.513Z" stroke="#00C83C" stroke-width="2.56924"/>
<path d="M119.626 10.1796C122.357 10.4464 124.359 12.8807 124.092 15.6122C123.825 18.3437 121.391 20.3448 118.659 20.078C115.928 19.8113 113.927 17.3769 114.193 14.6454C114.46 11.914 116.895 9.91283 119.626 10.1796Z" stroke="#00C83C" stroke-width="2.56924"/>
<path d="M5.22298 74.9047C6.47679 74.9047 7.49478 75.9227 7.49478 77.1765C7.49478 78.4303 6.47679 79.4483 5.22298 79.4483C3.96917 79.4483 2.95117 78.4303 2.95117 77.1765C2.95117 75.9227 3.96917 74.9047 5.22298 74.9047Z" stroke="#00C83C" stroke-width="1.87801"/>
<path d="M181.672 223.053C182.926 223.053 183.944 224.071 183.944 225.325C183.944 226.579 182.926 227.597 181.672 227.597C180.418 227.597 179.4 226.579 179.4 225.325C179.4 224.071 180.418 223.053 181.672 223.053Z" stroke="#4D5762" stroke-width="1.87801"/>
<path d="M208.316 9.59613L209.453 0.548651" stroke="#4D5762" stroke-width="1.09422"/>
<path d="M204.514 4.54193L213.561 5.67811" stroke="#4D5762" stroke-width="1.09422"/>
<path d="M15.2051 158.432L15.9365 149.343" stroke="#4D5762" stroke-width="1.09422"/>
<path d="M11.1797 153.553L20.2688 154.284" stroke="#4D5762" stroke-width="1.09422"/>
<path d="M204.842 197.84L204.898 188.722" stroke="#4D5762" stroke-width="1.09422"/>
<path d="M200.467 193.272L209.586 193.329" stroke="#4D5762" stroke-width="1.09422"/>
<path d="M122.087 48.4171C158.271 48.4171 187.65 77.7956 187.65 113.98C187.65 150.163 158.271 179.542 122.087 179.542C85.9034 179.542 56.5249 150.163 56.5249 113.98C56.5249 77.7956 85.9034 48.4171 122.087 48.4171Z" fill="#404040"/>
<path d="M122.048 54.618C154.809 54.618 181.409 81.2179 181.409 113.98C181.409 146.741 154.809 173.341 122.048 173.341C89.286 173.341 62.686 146.741 62.686 113.98C62.686 81.2179 89.286 54.618 122.048 54.618Z" fill="#1D1D1D"/>
<path d="M95.2393 116.157L111.288 131.841L148.856 94.2722" stroke="#00C83C" stroke-width="6.56535"/>
</svg>
