<svg id="Layer_1" data-name="Layer 1" xmlns="http://www.w3.org/2000/svg" viewBox="0 0 32 32"><defs><linearGradient id="linear-gradient" y1="16.38" x2="32" y2="16.38" gradientTransform="matrix(1 0 0 -1 0 34)" gradientUnits="userSpaceOnUse"><stop offset="0" stop-color="#9796f0"/><stop offset="1" stop-color="#fbc7d4"/></linearGradient><style>.cls-1{fill:#fff}.cls-4{fill-opacity:.1}</style><mask id="mask" x="0" y="0" width="32" height="32" maskUnits="userSpaceOnUse"><g transform="translate(0 -1.41)"><path class="cls-1" d="M1.91 15.07a3.19 3.19 0 0 1-.21-4.18L5 6.65a3.21 3.21 0 0 1 2.53-1.24h17a3.21 3.21 0 0 1 2.54 1.25l3.25 4.24a3.2 3.2 0 0 1-.22 4.16L18.35 27.4a3.19 3.19 0 0 1-4.63 0Z" id="mask0_1257_3269" data-name="mask0 1257 3269"/></g></mask></defs><g mask="url(#mask)"><path d="m0 13.07 6-7.66h20.12L32 13.07 16 29.83Z" transform="translate(0 -1.41)" fill="url(#linear-gradient)"/><path class="cls-4" d="m0 13.07 7.38 2.44L16 29.83ZM32 13.07l-7.51 2.44L16 29.83Z" transform="translate(0 -1.41)"/><path class="cls-1" d="M15.92 7.09 5.9 5.41l1.48 10.1h17.07l1.49-10.1Z" transform="translate(0 -1.41)"/><path class="cls-1" d="M5.9 5.41 16 8.78l10.12-3.37Z" transform="translate(0 -1.41)"/><path class="cls-1" d="m15.92 7.09-8.54 8.42h17.07Z" transform="translate(0 -1.41)"/><path class="cls-1" d="m16 8.78-8.62 6.73h17.07ZM7.38 15.51 0 13.07l5.9-7.66h1.48Z" transform="translate(0 -1.41)"/><path class="cls-1" d="M24.45 15.51 32 13.07l-5.9-7.66h-1.48Z" transform="translate(0 -1.41)"/><path class="cls-1" d="M7.38 15.51 16 29.81l8.45-14.3Z" transform="translate(0 -1.41)" opacity=".5"/><path d="M7.38 15.51 16 29.81l8.45-14.3Z" transform="translate(0 -1.41)" opacity=".3"/><path fill="none" d="M0 0h32v32H0z"/></g></svg>